<?xml version="1.0" standalone="no"?>
<!DOCTYPE svg PUBLIC "-//W3C//DTD SVG 20010904//EN"
 "http://www.w3.org/TR/2001/REC-SVG-20010904/DTD/svg10.dtd">
<svg version="1.0" xmlns="http://www.w3.org/2000/svg"
 width="260.000000pt" height="260.000000pt" viewBox="0 0 260.000000 260.000000"
 preserveAspectRatio="xMidYMid meet">
<metadata>
Created by potrace 1.11, written by Peter Selinger 2001-2013
</metadata>
<g transform="translate(0.000000,260.000000) scale(0.100000,-0.100000)"
fill="#000000" stroke="none">
<path d="M0 2526 c0 -72 1 -76 23 -77 79 -3 151 -21 235 -59 48 -22 93 -35
104 -32 24 6 58 58 58 90 0 67 -155 134 -345 148 l-75 6 0 -76z"/>
<path d="M640 2500 c-24 -24 -26 -86 -5 -115 14 -18 29 -19 238 -20 l222 0 5
-825 c3 -454 6 -826 8 -826 52 -29 118 -27 143 3 11 13 14 162 14 824 0 444 4
811 8 816 5 4 99 9 210 9 111 1 210 2 219 3 41 3 55 95 21 133 -15 17 -53 18
-540 18 -510 0 -524 -1 -543 -20z"/>
<path d="M1980 2500 c-20 -20 -20 -29 -20 -894 0 -945 -3 -894 51 -911 29 -10
84 3 100 22 11 13 14 93 14 407 l0 391 160 2 160 3 25 -52 c14 -28 48 -97 77
-152 l52 -101 1 234 c0 218 -1 233 -17 226 -10 -5 -116 -9 -235 -11 -197 -2
-218 -1 -219 14 -1 10 -2 167 -3 350 -1 287 1 333 14 336 25 8 424 0 443 -9
15 -6 17 0 17 73 0 73 -2 80 -21 85 -12 3 -147 6 -300 7 -267 1 -279 0 -299
-20z"/>
<path d="M1 1717 l0 -92 69 -33 c176 -84 257 -244 221 -434 -25 -125 -94 -201
-217 -240 l-74 -23 0 -78 0 -78 38 6 c227 38 364 162 408 367 18 84 12 256
-11 333 -45 151 -168 264 -369 340 l-66 25 1 -93z"/>
</g>
</svg>
